Coordinates
version=1
nRows=13
nColumns=36
inDegrees=yes

Units are S.I. units (second, meters, Newtons, ...)
If the header above contains a line with 'inDegrees', this indicates whether rotational values are in degrees (yes) or radians (no).

endheader
time	pelvis_tilt	pelvis_list	pelvis_rotation	pelvis_tx	pelvis_ty	pelvis_tz	hip_flexion_r	hip_adduction_r	hip_rotation_r	knee_angle_r	knee_angle_r_beta	ankle_angle_r	subtalar_angle_r	mtp_angle_r	hip_flexion_l	hip_adduction_l	hip_rotation_l	knee_angle_l	knee_angle_l_beta	ankle_angle_l	subtalar_angle_l	mtp_angle_l	lumbar_extension	lumbar_bending	lumbar_rotation	arm_flex_r	arm_add_r	arm_rot_r	elbow_flex_r	pro_sup_r	arm_flex_l	arm_add_l	arm_rot_l	elbow_flex_l	pro_sup_l
      2.92916670	    -10.16939238	      1.35288251	      2.59483450	     -0.22665569	      1.20229452	      0.00316544	     20.84277707	     -2.45390972	      3.60474733	     19.75584260	      0.34480450	      0.50998453	    -11.59900028	     -7.49999987	     26.99379433	     -4.95526815	      4.82354467	     25.32998543	      0.44209165	     -2.00479951	     -8.41507999	     -7.49999987	    -13.25415218	      1.67369884	      0.55708483	     -7.30200555	    -16.44106722	    -33.36626186	     53.25907905	     76.36027870	    -19.63176203	    -25.30274088	     -8.96935438	     79.92436585	     83.08433187
      2.93333330	    -10.24387319	      1.37032524	      2.77234232	     -0.22054011	      1.19683350	      0.00148170	     21.17788054	     -2.76179133	      3.40781964	     18.76986097	      0.32759587	      1.34812949	    -10.81132481	     -7.49999987	     27.24869318	     -4.73846189	      5.05403457	     24.55808241	      0.42861940	     -1.77556419	     -8.67106821	     -7.49999987	    -12.97092470	      1.86857898	      0.49328123	     -8.43467214	    -16.68038410	    -32.37165188	     53.96358056	     76.48482962	    -20.35545628	    -25.62609092	     -8.41447661	     81.25389519	     83.50318196
      2.93750000	    -10.39567708	      1.38030330	      2.85971522	     -0.21578080	      1.18895463	      0.00308192	     21.83263557	     -2.89360983	      3.28767295	     18.02723324	      0.31463458	      2.13908438	    -10.74627378	     -7.49999987	     27.61907490	     -4.59409485	      5.13556624	     23.89558857	      0.41705670	     -1.10929063	     -8.71667391	     -7.49999987	    -12.74794524	      1.96435417	      0.55988869	     -9.36528225	    -16.87925690	    -31.58609067	     54.49293929	     76.55478241	    -20.95830466	    -26.01593301	     -8.13149231	     82.49942083	     83.85027024
      2.94166670	    -10.40418281	      1.47784091	      2.91246923	     -0.20823087	      1.18776554	      0.00288581	     21.94148431	     -3.14399643	      3.02835165	     16.80924150	      0.29337661	      2.65310608	    -10.39152552	     -7.49999987	     27.52295886	     -4.44108960	      5.13151194	     22.85938814	      0.39897159	     -0.80423298	     -8.70509362	     -7.49999987	    -12.50268707	      2.05873262	      0.58089337	    -10.21136695	    -17.13830275	    -30.36242648	     54.94710194	     76.44181678	    -21.74866829	    -26.23759346	     -7.99968475	     83.58936453	     84.68655571
      2.94583330	    -10.28844505	      1.54107289	      2.89813755	     -0.20298616	      1.18323152	      0.00395619	     21.97658867	     -3.26717604	      2.96900206	     15.47774366	      0.27013759	      2.82343094	    -10.71388739	     -7.49999987	     27.41390882	     -4.35316962	      5.15549956	     21.93210477	      0.38278744	     -0.61198626	     -8.96719715	     -7.49999987	    -12.41505108	      2.12197702	      0.76900688	    -10.63973722	    -17.00001485	    -30.17412296	     54.81631591	     76.75585280	    -22.11987236	    -26.44062958	     -7.96515684	     84.11099109	     85.19746909
      2.95000000	    -10.66717914	      1.53793622	      2.86576789	     -0.19790507	      1.17571613	      0.00424033	     22.79963958	     -3.40707591	      2.76905541	     14.46426062	      0.25244897	      2.96264918	    -10.58959919	     -7.49999987	     28.05282010	     -4.40383411	      4.85237681	     21.27535677	      0.37132503	      0.05193884	     -8.55125899	     -7.49999987	    -12.04727932	      2.16317990	      1.10721745	    -11.96436662	    -17.16595225	    -29.12382890	     56.10051758	     76.89554383	    -23.04768377	    -27.20653941	     -7.61413634	     86.35960812	     85.56074570
      2.95416670	    -10.68183625	      1.59644142	      2.85959010	     -0.19032597	      1.17133764	      0.00239373	     22.91399345	     -3.65764134	      2.54498813	     13.11005427	      0.22881361	      2.56815747	    -10.74993079	     -7.49999987	     28.08790696	     -4.28076009	      4.74713021	     20.35294483	      0.35522590	      0.12039834	     -8.47998618	     -7.49999987	    -11.81699572	      2.22873857	      1.24117340	    -12.76818610	    -17.18679196	    -28.45696756	     56.61732724	     77.15658467	    -23.66756135	    -27.58332038	     -7.35389913	     87.33519268	     86.08085567
      2.95833330	    -10.71466840	      1.72273308	      2.76226770	     -0.18431195	      1.16636168	      0.00114085	     23.10075421	     -3.92375695	      2.37049656	     11.89221612	      0.20755833	      2.41165108	    -10.65151901	     -7.49999987	     28.19648281	     -4.10622522	      4.60176924	     19.44188957	      0.33932499	      0.34341839	     -8.10694294	     -7.49999987	    -11.53106433	      2.24264462	      1.52315072	    -13.72210723	    -17.36964826	    -27.66919292	     57.40772561	     77.39036801	    -24.41296409	    -28.07153218	     -7.08365998	     88.64727852	     86.54526372
      2.96250000	    -10.57716261	      1.85261002	      2.68940650	     -0.17873240	      1.16451421	      0.00426945	     22.91087029	     -4.08309193	      2.36303440	     10.46276328	      0.18260967	      2.26772423	    -10.34819736	     -7.49999987	     28.08039119	     -4.05047336	      4.51150948	     18.42303264	      0.32154258	      0.30354883	     -7.54104709	     -7.49999987	    -11.37771761	      2.13951627	      1.68091984	    -14.45436154	    -17.36859151	    -26.78779218	     57.83938295	     77.62369154	    -25.04259657	    -28.58703689	     -6.96383430	     89.64384349	     87.09258909
      2.96666670	    -10.63389695	      1.92376712	      2.70909459	     -0.17359276	      1.15355726	      0.00275248	     23.13430703	     -4.27960559	      2.45147109	      9.37222255	      0.16357614	      2.15498467	    -10.23397347	     -7.49999987	     28.34381467	     -3.96844697	      4.33280769	     17.63657396	      0.30781628	      0.61421979	     -7.12906035	     -7.49999987	    -11.01414146	      2.08512794	      1.87988589	    -15.40171746	    -17.45013988	    -26.24694266	     58.45487530	     77.85875789	    -25.76256379	    -29.31999517	     -6.98285393	     91.14857975	     87.52846072
      2.97083330	    -10.53812563	      1.95837248	      2.78090682	     -0.16745005	      1.15207017	      0.00265969	     23.18502356	     -4.39402491	      2.66493771	      8.40567522	      0.14670671	      2.16856510	     -9.93109254	     -7.49999987	     28.40420726	     -3.92508505	      4.21694113	     16.84547656	      0.29400903	      0.82318829	     -6.61084592	     -7.49999987	    -10.84623787	      2.05979947	      1.90153350	    -16.17505962	    -17.46788236	    -25.52457176	     59.04295496	     78.03421890	    -26.34461792	    -29.99591678	     -6.83534763	     92.45238293	     87.88768559
      2.97500000	    -10.49544772	      2.03468424	      2.72833593	     -0.16032931	      1.14154506	      0.00286038	     23.24241119	     -4.46258383	      2.77280180	      7.42616816	      0.12961109	      2.26198918	     -9.80876891	     -7.49999987	     28.45552338	     -3.83150153	      4.11329130	     16.07149208	      0.28050045	      1.43684150	     -6.18776017	     -7.49999987	    -10.56069132	      1.94191647	      2.00297046	    -17.00138866	    -17.53331997	    -25.11320129	     59.55404656	     78.28454291	    -27.13085012	    -30.79893882	     -6.85519092	     93.59967655	     88.30151736
      2.97916670	    -10.61379003	      2.09302143	      2.63845800	     -0.15408095	      1.13445708	      0.00202167	     23.57467970	     -4.57487762	      2.69621655	      6.62399734	      0.11561056	      2.41987488	     -9.89600912	     -7.49999987	     28.74367173	     -3.75802240	      3.77659303	     15.52625448	      0.27098426	      2.32920587	     -5.42212443	     -7.49999987	    -10.19299602	      1.93995830	      2.21058033	    -18.05885284	    -17.80013228	    -24.44572534	     60.64788485	     78.44102233	    -28.11670244	    -31.42987749	     -6.75005807	     95.25207190	     88.56555224
